<svg height="170.56126" width="170.56076" xmlns="http://www.w3.org/2000/svg"><g transform="matrix(1.0008826 0 0 1.0094534 -89.30794452 -464.655668)"><path d="m-56.121956 434.33029h461.11301v328.39554h-461.11301z" fill="none"/><g transform="matrix(1.0627252 0 0 1.0537063 198.76454 -518.47507)"><path d="m323.36653 2798.1614-5.40616 5.8005-5.40616-5.8005v-40.8261h-18.01333l23.41949-24.8979 23.02487 24.8979h-17.6187l-.00001 40.8261z" fill="#932279" fill-rule="evenodd" transform="matrix(0 -1.0666663 1 0 -2833.687171328126 1348.136584)"/><path d="m323.36653 2798.1614-5.40616 5.8005-5.40616-5.8005v-40.8261h-18.01333l23.41949-24.8979 23.02487 24.8979h-17.6187l-.00001 40.8261z" fill="#efa724" fill-rule="evenodd" transform="matrix(1.0666663 0 0 1 -361.962794 -1801.725451328125)"/><path d="m323.36653 2798.1614-5.40616 5.8005-5.40616-5.8005v-40.8261h-18.01333l23.41949-24.8979 23.02487 24.8979h-17.6187l-.00001 40.8261z" fill="#262577" fill-rule="evenodd" transform="matrix(0 1.0666663 -1 0 2787.899241328125 669.998914)"/><path d="m323.36653 2798.1614-5.40616 5.8005-5.40616-5.8005v-40.8261h-18.01333l23.41949-24.8979 23.02487 24.8979h-17.6187l-.00001 40.8261z" fill="#9ccd2a" fill-rule="evenodd" transform="matrix(-1.0666663 0 0 -1 316.174714 3819.860971328125)"/><g stroke="#fff"><g stroke-width="3.54330707" transform="translate(-749.79982 -1331.6428)"><path d="m671.98437 2285.7893h49.60645v49.6065h-49.60645z" fill="#9ccd2a"/><path d="m732.22076 2285.7893h49.60645v49.6065h-49.60645z" fill="#932279"/><path d="m732.22076 2346.0256h49.60645v49.6065h-49.60645z" fill="#efa724"/><path d="m671.98437 2346.0256h49.60645v49.6065h-49.60645z" fill="#262577"/></g><path d="m-784.62878 642.40875h49.60644v49.60645h-49.60644z" fill="none" stroke-width="3.54330707" transform="matrix(.7071068 -.7071068 .7071068 .7071068 0 0)"/><path d="m-724.39233 642.40875h49.60645v49.60645h-49.60645z" fill="none" stroke-width="3.54306793" transform="matrix(.7071068 -.7071068 .7071068 .7071068 0 0)"/><path d="m-15.377623 1009.0679 35.077058-35.0771 35.077058 35.0771-35.077058 35.077z" fill="none" stroke-width="3.54330707"/><path d="m-784.62878 702.64508h49.60644v49.60645h-49.60644z" fill="none" stroke-width="3.54330707" transform="matrix(.7071068 -.7071068 .7071068 .7071068 0 0)"/></g></g></g></svg>